<?xml version="1.0" encoding="UTF-8"?><svg xmlns="http://www.w3.org/2000/svg" viewBox="0 0 375.32 1446.51"><defs><style>.d{fill:#ff8000;}</style></defs><g id="a"/><g id="b"><g id="c"><path class="d" d="M167.59,352.6c0,10.23,2.8,20.45,8.43,30.66l-33.73,19.16c-5.63,2.56-9.96,2.05-13.03-1.53-4.1-5.62-7.41-12.9-9.96-21.85-2.56-8.93-3.83-17.75-3.83-26.45,0-7.67,1.27-16.35,3.83-26.06,2.55-9.7,5.87-17.12,9.96-22.23,3.07-3.57,7.4-4.08,13.03-1.53l33.73,19.16c-3.07,5.11-5.25,10.35-6.52,15.71-1.28,5.37-1.92,10.35-1.92,14.95Zm57.49,62.09c11.23,0,21.46-2.8,30.66-8.43l19.16,33.73c2.55,5.63,2.04,9.96-1.53,13.03-5.63,4.6-13.16,8.05-22.61,10.35-9.46,2.3-18.01,3.45-25.68,3.45-8.7,0-17.76-1.27-27.21-3.83-9.46-2.55-16.48-5.87-21.08-9.96-4.1-3.57-4.6-7.92-1.53-13.03l19.16-33.73c10.22,5.63,20.43,8.43,30.66,8.43Zm0-122.64c-10.23,0-20.44,2.81-30.66,8.43l-19.16-33.73c-2.56-5.62-2.05-9.96,1.53-13.03,5.62-4.08,12.9-7.4,21.85-9.97,8.93-2.55,17.75-3.83,26.45-3.83,7.67,0,16.35,1.28,26.06,3.83,9.7,2.56,17.11,5.88,22.23,9.97,3.57,3.07,4.08,7.41,1.53,13.03l-19.16,33.73c-5.11-3.07-10.35-5.23-15.71-6.52-5.37-1.27-10.35-1.92-14.95-1.92Zm1.53-76.65c-7.16,0-13.8,.52-19.93,1.53-6.13,1.03-12.78,3.07-19.93,6.13,12.26-64.39,35-115.1,68.22-152.16C288.19,33.86,328.3,10.23,375.32,0V77.42c-55.71,21.46-91.48,70.02-107.31,145.64-7.16-3.07-14.06-5.1-20.7-6.13-6.65-1.02-13.55-1.53-20.7-1.53Zm0,276.72c7.15,0,14.05-.5,20.7-1.53,6.63-1.02,13.53-3.07,20.7-6.13,15.33,75.12,51.09,123.66,107.31,145.64v77.42c-47.02-10.23-87.13-33.86-120.35-70.9-33.22-37.06-55.96-87.77-68.22-152.16,7.15,3.07,13.8,5.11,19.93,6.13,6.13,1.03,12.77,1.53,19.93,1.53Zm-39.09-138.74c0-10.73,3.57-19.93,10.73-27.59,7.15-7.67,15.83-11.5,26.06-11.5s18.9,3.83,26.06,11.5c7.15,7.67,10.73,16.86,10.73,27.59s-3.58,19.93-10.73,27.6c-7.16,7.67-15.85,11.5-26.06,11.5s-18.91-3.83-26.06-11.5c-7.16-7.67-10.73-16.86-10.73-27.6Zm94.28-.77c0-11.23-2.82-21.46-8.43-30.66l33.73-19.16c5.62-2.55,9.96-2.04,13.03,1.53,4.6,5.63,8.05,13.16,10.35,22.61,2.3,9.46,3.45,18.01,3.45,25.68,0,8.7-1.28,17.76-3.83,27.21-2.56,9.46-5.88,16.48-9.96,21.08-3.58,4.1-7.93,4.6-13.03,1.53l-33.73-19.16c5.62-10.22,8.43-20.43,8.43-30.66Z"/><path class="d" d="M128.01,955.93c-6.63,1.03-13.53,3.07-20.7,6.13-15.83-75.62-51.61-124.18-107.31-145.64v-77.42c47.02,10.23,87.13,33.86,120.35,70.9,33.22,37.06,55.96,87.77,68.22,152.16-7.15-3.07-13.8-5.1-19.93-6.13-6.13-1.02-12.77-1.53-19.93-1.53s-14.05,.52-20.7,1.53Zm40.63,273.65c6.13-1.02,12.78-3.07,19.93-6.13-12.26,64.39-35,115.1-68.22,152.16-33.21,37.04-73.32,60.68-120.35,70.9v-77.42c56.22-21.98,91.98-70.52,107.31-145.64,7.16,3.07,14.06,5.11,20.7,6.13,6.65,1.03,13.55,1.53,20.7,1.53s13.8-.5,19.93-1.53Zm-66.69-107.31l-33.73,19.16c-5.1,3.07-9.45,2.56-13.03-1.53-4.08-4.6-7.4-11.62-9.96-21.08-2.55-9.45-3.83-18.52-3.83-27.21,0-7.67,1.15-16.22,3.45-25.68,2.3-9.45,5.75-16.98,10.35-22.61,3.07-3.57,7.41-4.08,13.03-1.53l33.73,19.16c-5.62,9.2-8.43,19.43-8.43,30.66,0,10.23,2.82,20.45,8.43,30.66Zm78.95,23l19.16,33.73c3.07,5.11,2.56,9.46-1.53,13.03-4.6,4.1-11.62,7.41-21.08,9.96-9.45,2.56-18.52,3.83-27.21,3.83-7.67,0-16.22-1.15-25.68-3.45-9.45-2.3-16.98-5.75-22.61-10.35-3.57-3.07-4.08-7.4-1.53-13.03l19.16-33.73c9.2,5.63,19.43,8.43,30.66,8.43,10.23,0,20.44-2.8,30.66-8.43Zm-45.61-112.3c-5.37,1.28-10.6,3.45-15.71,6.52l-19.16-33.73c-2.55-5.62-2.04-9.96,1.53-13.03,5.11-4.08,12.53-7.4,22.23-9.97,9.71-2.55,18.4-3.83,26.06-3.83,8.7,0,17.51,1.28,26.45,3.83,8.95,2.56,16.23,5.88,21.85,9.97,3.58,3.07,4.1,7.41,1.53,13.03l-19.16,33.73c-10.22-5.62-20.43-8.43-30.66-8.43-4.6,0-9.58,.65-14.95,1.92Zm41.78,87c-7.15,7.67-15.83,11.5-26.06,11.5s-18.9-3.83-26.06-11.5c-7.15-7.67-10.73-16.86-10.73-27.6s3.58-19.93,10.73-27.59c7.16-7.67,15.85-11.5,26.06-11.5s18.91,3.83,26.06,11.5c7.16,7.67,10.73,16.86,10.73,27.59s-3.57,19.93-10.73,27.6Zm28.75-43.31c-1.27-5.37-3.45-10.6-6.52-15.71l33.73-19.16c5.63-2.55,9.96-2.04,13.03,1.53,4.1,5.11,7.41,12.53,9.96,22.23,2.56,9.71,3.83,18.4,3.83,26.06,0,8.7-1.27,17.51-3.83,26.45-2.55,8.95-5.87,16.23-9.96,21.85-3.07,3.58-7.4,4.1-13.03,1.53l-33.73-19.16c5.63-10.22,8.43-20.43,8.43-30.66,0-4.6-.63-9.58-1.92-14.95Z"/></g></g></svg>