<?xml version="1.0" encoding="UTF-8"?><svg xmlns="http://www.w3.org/2000/svg" viewBox="0 0 186.82 233.3"><g id="a"/><g id="b"><g id="c"><path d="M150.33,12.85c0-2.35,.37-4.35,1.1-5.98,.73-1.64,1.75-2.96,3.06-3.97,1.3-1.01,2.86-1.74,4.66-2.2,1.81-.46,3.78-.69,5.92-.69s3.9,.12,5.51,.38c1.62,.25,3,.53,4.16,.82,1.15,.29,2.05,.57,2.68,.82s.99,.4,1.07,.44V46.43h-7.18V6.55c-.25-.08-.94-.25-2.05-.5-1.11-.25-2.49-.38-4.13-.38-2.69,0-4.63,.64-5.83,1.92-1.2,1.28-1.8,3.2-1.8,5.76v1.45h7.18c1.39,0,2.36,.28,2.93,.85,.57,.57,.85,1.4,.85,2.49,0,.71-.1,1.38-.31,1.98-.21,.61-.38,1.04-.5,1.29h-10.14v25.01h-7.18V12.85Z"/><path d="M0,12.85c0-2.27,.32-4.22,.95-5.86,.63-1.64,1.52-2.97,2.68-4,1.15-1.03,2.52-1.79,4.1-2.27s3.31-.72,5.2-.72c2.44,0,4.41,.36,5.92,1.07,1.51,.71,2.27,1.81,2.27,3.28,0,.71-.2,1.34-.6,1.89-.4,.55-.83,.97-1.29,1.26-.67-.54-1.46-.99-2.36-1.32-.9-.34-1.98-.5-3.24-.5-2.27,0-3.91,.63-4.91,1.89-1.01,1.26-1.51,3.05-1.51,5.35v1.89h14.74v-1.95c0-2.27,.31-4.22,.94-5.86,.63-1.64,1.52-2.97,2.68-4,1.15-1.03,2.52-1.79,4.09-2.27,1.58-.48,3.31-.72,5.2-.72,3.44,0,5.88,.41,7.31,1.23,1.43,.82,2.14,1.86,2.14,3.12,0,.71-.2,1.34-.6,1.89-.4,.55-.83,.97-1.29,1.26-.67-.54-1.59-.99-2.74-1.32-1.16-.34-2.38-.5-3.69-.5-2.48,0-4.24,.63-5.29,1.89-1.05,1.26-1.57,3.05-1.57,5.35v1.89h9.45c1.39,0,2.36,.28,2.93,.85s.85,1.4,.85,2.49c0,.71-.11,1.38-.32,1.98-.21,.61-.38,1.04-.5,1.29h-12.41v25.01h-7.18V21.42H7.18v25.01H0V12.85Z"/><path d="M77.78,12.85c0-2.35,.37-4.35,1.1-5.98,.73-1.64,1.73-2.96,2.99-3.97,1.26-1.01,2.74-1.74,4.44-2.2,1.7-.46,3.54-.69,5.51-.69,3.7,0,6.43,.39,8.19,1.17,1.76,.78,2.65,1.84,2.65,3.18,0,.71-.2,1.35-.6,1.92-.4,.57-.83,1-1.29,1.29-.34-.25-.81-.49-1.42-.72-.61-.23-1.27-.43-1.98-.6-.71-.17-1.46-.3-2.24-.41-.78-.1-1.5-.16-2.17-.16-2.52,0-4.49,.61-5.92,1.83-1.43,1.22-2.14,3.13-2.14,5.73v1.58h18.21c1.51,0,2.5,.33,2.96,.98,.46,.65,.69,1.65,.69,2.99v27.66h-7.12V21.42h-14.74v25.01h-7.12V12.85Z"/><path d="M64.05,105.85c0-2.27,.32-4.22,.95-5.86,.63-1.64,1.52-2.97,2.68-4,1.15-1.03,2.52-1.79,4.1-2.27s3.31-.72,5.2-.72c2.44,0,4.41,.36,5.92,1.07,1.51,.71,2.27,1.81,2.27,3.28,0,.71-.2,1.34-.6,1.89-.4,.55-.83,.97-1.29,1.26-.67-.54-1.46-.99-2.36-1.32-.9-.34-1.98-.5-3.24-.5-2.27,0-3.91,.63-4.91,1.89-1.01,1.26-1.51,3.05-1.51,5.35v1.89h15.12v-1.95c0-2.35,.37-4.35,1.1-5.98,.73-1.64,1.73-2.96,2.99-3.97,1.26-1.01,2.74-1.74,4.44-2.2,1.7-.46,3.54-.69,5.51-.69,3.7,0,6.43,.39,8.19,1.17,1.76,.78,2.65,1.84,2.65,3.18,0,.71-.2,1.35-.6,1.92-.4,.57-.83,1-1.29,1.29-.34-.25-.81-.49-1.42-.72-.61-.23-1.27-.43-1.98-.6-.71-.17-1.46-.3-2.24-.41-.78-.1-1.5-.16-2.17-.16-2.52,0-4.49,.61-5.92,1.83-1.43,1.22-2.14,3.13-2.14,5.73v1.58h18.21c1.51,0,2.5,.33,2.96,.98,.46,.65,.69,1.65,.69,2.99v27.66h-7.18v-25.01h-14.62v25.01h-7.18v-25.01h-15.12v25.01h-7.18v-33.58Z"/><path d="M136.86,105.85c0-2.27,.32-4.22,.95-5.86,.63-1.64,1.52-2.97,2.68-4,1.15-1.03,2.52-1.79,4.1-2.27s3.31-.72,5.2-.72c2.44,0,4.41,.36,5.92,1.07,1.51,.71,2.27,1.81,2.27,3.28,0,.71-.2,1.34-.6,1.89-.4,.55-.83,.97-1.29,1.26-.67-.54-1.46-.99-2.36-1.32-.9-.34-1.98-.5-3.24-.5-2.27,0-3.91,.63-4.91,1.89-1.01,1.26-1.51,3.05-1.51,5.35v1.89h14.62v-1.95c0-2.35,.37-4.35,1.1-5.98,.73-1.64,1.75-2.96,3.06-3.97,1.3-1.01,2.86-1.74,4.66-2.2,1.81-.46,3.78-.69,5.92-.69s3.9,.12,5.51,.38c1.62,.25,3,.53,4.16,.82,1.15,.29,2.05,.57,2.68,.82s.99,.4,1.07,.44v43.97h-7.18v-39.88c-.25-.08-.94-.25-2.05-.5-1.11-.25-2.49-.38-4.13-.38-2.69,0-4.63,.64-5.83,1.92-1.2,1.28-1.8,3.2-1.8,5.76v1.45h7.18c1.39,0,2.36,.28,2.93,.85s.85,1.4,.85,2.49c0,.71-.11,1.38-.31,1.98-.21,.61-.38,1.04-.5,1.29h-10.14v25.01h-7.18v-25.01h-14.62v25.01h-7.18v-33.58Z"/><path d="M3.47,105.85c0-2.35,.37-4.35,1.1-5.98,.73-1.64,1.75-2.96,3.06-3.97,1.3-1.01,2.86-1.74,4.66-2.2,1.81-.46,3.78-.69,5.92-.69s3.9,.12,5.51,.38c1.62,.25,3,.53,4.16,.82,1.15,.29,2.05,.57,2.68,.82s.99,.4,1.07,.44v43.97h-7.18v-39.88c-.25-.08-.94-.25-2.05-.5-1.11-.25-2.49-.38-4.13-.38-2.69,0-4.63,.64-5.83,1.92-1.2,1.28-1.8,3.2-1.8,5.76v1.45h7.18c1.39,0,2.36,.28,2.93,.85,.57,.57,.85,1.4,.85,2.49,0,.71-.1,1.38-.31,1.98-.21,.61-.38,1.04-.5,1.29H10.65v25.01H3.47v-33.58Z"/><path d="M60.09,204.01c0,.42,.04,.83,.13,1.23,.08,.4,.25,.87,.5,1.42l-2.71,1.7c-.21,.12-.42,.19-.63,.19-.25,0-.48-.15-.69-.44-.21-.29-.39-.66-.54-1.1-.15-.44-.26-.93-.35-1.48-.08-.54-.13-1.05-.13-1.51s.04-.96,.13-1.51c.08-.54,.2-1.04,.35-1.48,.15-.44,.33-.81,.54-1.1,.21-.29,.44-.44,.69-.44,.21,0,.42,.06,.63,.19l2.71,1.7c-.25,.55-.42,1.02-.5,1.42-.08,.4-.13,.81-.13,1.23Zm4.98-4.98c-.42,0-.83,.04-1.23,.13-.4,.08-.87,.25-1.42,.5l-1.7-2.71c-.13-.17-.19-.38-.19-.63s.15-.48,.44-.69c.29-.21,.66-.39,1.1-.54,.44-.15,.93-.26,1.48-.35,.54-.08,1.05-.13,1.51-.13s.97,.04,1.51,.13c.55,.08,1.04,.2,1.48,.35,.44,.15,.81,.33,1.1,.54,.29,.21,.44,.44,.44,.69s-.06,.46-.19,.63l-1.7,2.71c-.55-.25-1.02-.42-1.42-.5-.4-.08-.81-.13-1.23-.13Zm0,10.02c.42,0,.83-.04,1.23-.13,.4-.08,.87-.25,1.42-.5l1.7,2.71c.13,.21,.19,.42,.19,.63,0,.25-.15,.48-.44,.69-.29,.21-.66,.39-1.1,.54-.44,.15-.94,.26-1.48,.35-.55,.08-1.05,.13-1.51,.13s-.97-.04-1.51-.13c-.55-.08-1.04-.2-1.48-.35-.44-.15-.81-.33-1.1-.54-.29-.21-.44-.44-.44-.69,0-.21,.06-.42,.19-.63l1.7-2.71c.55,.25,1.02,.42,1.42,.5,.4,.08,.81,.13,1.23,.13Zm12.98-27.28c-4.58,1.76-7.56,5.63-8.95,11.59-1.26-.5-2.54-.76-3.84-.76-1.39,0-2.67,.25-3.84,.76,1.09-5.25,3.07-9.45,5.92-12.6,2.86-3.15,6.43-5.14,10.71-5.99v6.99Zm0,51.53c-4.28-.84-7.85-2.83-10.71-5.98-2.86-3.15-4.83-7.33-5.92-12.54,1.26,.46,2.54,.69,3.84,.69,1.39,0,2.67-.23,3.84-.69,1.39,5.96,4.37,9.81,8.95,11.53v6.99Zm-16.19-29.29c0-.88,.31-1.64,.94-2.27,.63-.63,1.39-.95,2.27-.95s1.7,.32,2.33,.95,.94,1.39,.94,2.27-.31,1.7-.94,2.33c-.63,.63-1.41,.94-2.33,.94s-1.64-.32-2.27-.94c-.63-.63-.94-1.41-.94-2.33Zm8.25,0c0-.42-.04-.83-.13-1.23-.08-.4-.25-.87-.5-1.42l2.71-1.7c.17-.13,.38-.19,.63-.19s.48,.15,.69,.44c.21,.29,.39,.66,.54,1.1,.15,.44,.26,.94,.35,1.48,.08,.55,.13,1.05,.13,1.51s-.04,.97-.13,1.51c-.08,.55-.2,1.04-.35,1.48-.15,.44-.33,.81-.54,1.1-.21,.29-.44,.44-.69,.44s-.46-.06-.63-.19l-2.71-1.7c.25-.54,.42-1.02,.5-1.42,.08-.4,.13-.81,.13-1.23Z"/><path d="M106.29,174.52c4.28,.84,7.85,2.83,10.71,5.98,2.86,3.15,4.83,7.35,5.92,12.6-1.22-.5-2.5-.76-3.84-.76s-2.58,.25-3.84,.76c-1.39-5.96-4.37-9.83-8.95-11.59v-6.99Zm0,51.53c4.58-1.72,7.56-5.56,8.95-11.53,.63,.25,1.26,.43,1.89,.54s1.28,.16,1.95,.16c1.3,0,2.58-.23,3.84-.69-1.09,5.21-3.07,9.39-5.92,12.54-2.86,3.15-6.43,5.14-10.71,5.99v-6.99Zm7.94-22.3c0,.42,.04,.83,.13,1.23,.08,.4,.25,.87,.5,1.42l-2.71,1.7c-.21,.13-.42,.19-.63,.19-.25,0-.48-.15-.69-.44-.21-.29-.39-.66-.54-1.1-.15-.44-.26-.93-.35-1.48-.08-.55-.13-1.05-.13-1.51s.04-.97,.13-1.51c.08-.54,.2-1.04,.35-1.48,.15-.44,.32-.81,.54-1.1,.21-.29,.44-.44,.69-.44,.21,0,.42,.06,.63,.19l2.71,1.7c-.25,.55-.42,1.02-.5,1.42-.08,.4-.13,.81-.13,1.23Zm5.04-4.98c-.42,0-.83,.04-1.23,.13-.4,.08-.87,.25-1.42,.5l-1.7-2.71c-.13-.17-.19-.38-.19-.63s.15-.48,.44-.69c.29-.21,.66-.39,1.1-.54,.44-.15,.93-.26,1.48-.35,.55-.08,1.05-.13,1.51-.13s.97,.04,1.51,.13c.55,.08,1.04,.2,1.48,.35,.44,.15,.81,.33,1.1,.54,.29,.21,.44,.44,.44,.69s-.06,.46-.19,.63l-1.7,2.71c-.55-.25-1.02-.42-1.42-.5-.4-.08-.81-.13-1.23-.13Zm0,10.02c.42,0,.83-.04,1.23-.13,.4-.08,.87-.25,1.42-.5l1.7,2.71c.13,.21,.19,.42,.19,.63,0,.25-.15,.48-.44,.69-.29,.21-.66,.39-1.1,.54-.44,.15-.94,.26-1.48,.35-.55,.09-1.05,.13-1.51,.13s-.97-.04-1.51-.13c-.55-.08-1.04-.2-1.48-.35-.44-.15-.81-.33-1.1-.54-.29-.21-.44-.44-.44-.69,0-.21,.06-.42,.19-.63l1.7-2.71c.54,.25,1.02,.42,1.42,.5,.4,.08,.81,.13,1.23,.13Zm3.21-5.04c0,.92-.31,1.7-.95,2.33-.63,.63-1.39,.95-2.27,.95s-1.7-.32-2.33-.95c-.63-.63-.95-1.41-.95-2.33s.31-1.64,.95-2.27c.63-.63,1.41-.94,2.33-.94s1.64,.32,2.27,.94c.63,.63,.95,1.39,.95,2.27Zm1.76,0c0-.42-.04-.83-.13-1.23-.08-.4-.25-.87-.5-1.42l2.71-1.7c.17-.13,.38-.19,.63-.19s.48,.15,.69,.44c.21,.29,.39,.66,.54,1.1,.15,.44,.26,.94,.35,1.48,.08,.55,.13,1.05,.13,1.51s-.04,.97-.13,1.51c-.08,.55-.2,1.04-.35,1.48-.15,.44-.33,.81-.54,1.1-.21,.29-.44,.44-.69,.44s-.46-.06-.63-.19l-2.71-1.7c.25-.54,.42-1.02,.5-1.42,.08-.4,.13-.81,.13-1.23Z"/></g></g></svg>