<?xml version="1.0" encoding="UTF-8"?><svg xmlns="http://www.w3.org/2000/svg" viewBox="0 0 475.34 174.87"><defs><style>.d{fill:#fff;}</style></defs><g id="a"/><g id="b"><g id="c"><path class="d" d="M145.61,113.47c.68,4.12,2.05,8.59,4.1,13.4-43.25-8.29-77.3-23.61-102.17-45.96C22.68,58.57,6.83,31.6,0,0L52.01,.06c14.72,37.79,47.31,61.86,97.76,72.22-2.07,4.81-3.45,9.44-4.14,13.9-.7,4.47-1.04,9.1-1.05,13.9,0,4.81,.33,9.27,1.01,13.39Zm56.64,8.31l-22.68,12.85c-3.44,2.06-6.36,1.71-8.75-1.04-2.75-3.09-4.97-7.81-6.68-14.17-1.71-6.35-2.56-12.44-2.55-18.29,0-5.15,.79-10.9,2.34-17.25,1.55-6.35,3.88-11.41,6.97-15.18,2.06-2.4,4.98-2.74,8.76-1.02l22.64,12.9c-3.79,6.18-5.68,13.04-5.69,20.59,0,6.87,1.87,13.74,5.64,20.61Zm15.51-53.03l-12.85-22.68c-2.06-3.43-1.71-6.35,1.04-8.75,3.09-2.74,7.81-4.96,14.17-6.68,6.35-1.71,12.44-2.56,18.29-2.55,5.15,0,10.89,.79,17.25,2.34,6.35,1.55,11.41,3.88,15.18,6.97,2.4,2.06,2.74,4.98,1.02,8.76l-12.9,22.65c-6.18-3.78-13.05-5.68-20.59-5.69-6.87,0-13.74,1.87-20.61,5.64Zm30.56,69.82c3.61-.85,7.12-2.31,10.56-4.37l12.85,22.68c1.71,3.78,1.36,6.7-1.04,8.75-3.44,2.75-8.42,4.97-14.94,6.68-6.53,1.71-12.36,2.56-17.51,2.55-5.84,0-11.76-.87-17.76-2.6-6.01-1.72-10.9-3.96-14.67-6.71-2.4-2.06-2.75-4.98-1.02-8.76l12.9-22.65c6.86,3.79,13.72,5.68,20.59,5.69,3.09,0,6.44-.42,10.04-1.28Zm-29.07-19.35c-5.14-4.81-7.71-10.65-7.7-17.52,0-6.86,2.59-12.69,7.75-17.5,5.16-4.8,11.34-7.2,18.55-7.19,7.21,0,13.39,2.42,18.53,7.23,5.14,4.82,7.71,10.66,7.7,17.52,0,6.87-2.59,12.7-7.75,17.5-5.16,4.81-11.34,7.2-18.55,7.19-7.21,0-13.39-2.41-18.53-7.23Zm58.49-28c-.86-3.61-2.31-7.12-4.37-10.56l22.68-12.85c3.78-1.71,6.7-1.36,8.75,1.04,2.74,3.44,4.96,8.42,6.68,14.94,1.71,6.53,2.56,12.36,2.55,17.51,0,5.84-.88,11.76-2.6,17.76-1.73,6.01-3.96,10.9-6.71,14.67-2.06,2.4-4.98,2.75-8.76,1.02l-22.64-12.9c3.78-6.86,5.68-13.72,5.69-20.59,0-3.09-.43-6.44-1.28-10.04Zm51.76-4.83c-.69-4.46-2.05-9.1-4.1-13.91,50.82-10.58,83.47-34.57,97.93-71.98l52.02,.06c-6.91,31.58-22.82,58.51-47.73,80.8-24.92,22.29-59.01,37.52-102.28,45.71,2.07-4.8,3.44-9.27,4.14-13.38,.69-4.12,1.04-8.58,1.05-13.39,0-4.8-.33-9.44-1.01-13.91Z"/></g></g></svg>