<?xml version="1.0" encoding="UTF-8"?><svg xmlns="http://www.w3.org/2000/svg" viewBox="0 0 475.34 174.87"><defs><style>.d{fill:#fff;}</style></defs><g id="a"/><g id="b"><g id="c"><path class="d" d="M144.6,74.79c0,4.8,.35,9.44,1.05,13.9,.69,4.46,2.07,9.09,4.14,13.9-50.46,10.36-83.04,34.43-97.76,72.22l-52.01,.06c6.83-31.6,22.68-58.57,47.54-80.91,24.87-22.35,58.92-37.67,102.17-45.96-2.05,4.81-3.42,9.27-4.1,13.4-.69,4.12-1.02,8.58-1.01,13.39Zm52.01-1.09c0,7.55,1.9,14.42,5.69,20.59l-22.64,12.9c-3.78,1.72-6.69,1.38-8.76-1.02-3.09-3.78-5.42-8.84-6.97-15.18-1.55-6.35-2.33-12.1-2.34-17.25,0-5.84,.84-11.93,2.55-18.29,1.71-6.36,3.93-11.08,6.68-14.17,2.39-2.75,5.31-3.1,8.75-1.04l22.68,12.85c-3.77,6.87-5.65,13.73-5.64,20.61Zm41.76,38.06c7.55,0,14.42-1.91,20.59-5.69l12.9,22.65c1.72,3.77,1.38,6.69-1.02,8.76-3.78,3.09-8.84,5.42-15.18,6.97-6.35,1.55-12.1,2.33-17.25,2.34-5.84,0-11.93-.85-18.29-2.55-6.36-1.71-11.08-3.94-14.17-6.68-2.76-2.4-3.1-5.32-1.04-8.75l12.85-22.68c6.87,3.77,13.73,5.65,20.61,5.64Zm-.09-76.73c-6.87,0-13.73,1.9-20.59,5.69l-12.9-22.65c-1.73-3.78-1.38-6.69,1.02-8.76,3.77-2.76,8.66-4.99,14.67-6.71C226.47,.87,232.39,0,238.24,0c5.15,0,10.98,.84,17.51,2.55,6.52,1.71,11.5,3.93,14.94,6.68,2.4,2.06,2.75,4.97,1.04,8.75l-12.85,22.68c-3.44-2.06-6.96-3.52-10.56-4.37-3.61-.86-6.95-1.28-10.04-1.28Zm-.5,13.39c7.21,0,13.39,2.38,18.55,7.19,5.16,4.8,7.74,10.63,7.75,17.5,0,6.86-2.56,12.7-7.7,17.52-5.14,4.81-11.32,7.22-18.53,7.23-7.21,0-13.39-2.39-18.55-7.19-5.16-4.81-7.74-10.64-7.75-17.5,0-6.87,2.56-12.71,7.7-17.52,5.14-4.82,11.32-7.22,18.53-7.23Zm41.23,25.19c0-6.87-1.91-13.73-5.69-20.59l22.64-12.9c3.77-1.73,6.69-1.38,8.76,1.02,2.75,3.77,4.98,8.66,6.71,14.67,1.72,6,2.59,11.92,2.6,17.76,0,5.15-.85,10.98-2.55,17.51-1.71,6.52-3.94,11.5-6.68,14.94-2.06,2.4-4.98,2.75-8.75,1.04l-22.68-12.85c2.06-3.44,3.51-6.96,4.37-10.56,.85-3.61,1.28-6.95,1.28-10.04Zm51.5,.97c0-4.81-.36-9.27-1.05-13.39-.7-4.12-2.07-8.58-4.14-13.38,43.27,8.19,77.36,23.42,102.28,45.71,24.92,22.28,40.82,49.21,47.73,80.8l-52.02,.06c-14.46-37.41-47.12-61.41-97.93-71.98,2.05-4.81,3.42-9.45,4.1-13.91,.68-4.47,1.02-9.1,1.01-13.91Z"/></g></g></svg>