<?xml version="1.0" encoding="UTF-8"?><svg xmlns="http://www.w3.org/2000/svg" viewBox="0 0 118.26 44.55"><defs><style>.d{fill:#fff;fill-rule:evenodd;}</style></defs><g id="a"/><g id="b"><g id="c"><g><g transform="translate(0 8.163)"><path class="d" d="M18.35,22.74c0-3.55-2.52-5.77-6.07-5.77s-6.22,1.92-6.22,5.77h12.29Zm-5.92-10.66c6.51,0,11.69,4.88,11.69,11.4,0,.89,0,1.92-.3,3.7H5.92c0,3.55,1.92,6.51,6.51,6.51,3.4,0,4.59-1.48,5.33-3.26h5.92c-.89,4.29-4.74,8.14-11.25,8.14-8.29,0-12.43-6.36-12.43-13.32,0-7.55,4.44-13.17,12.43-13.17Z"/></g><path class="d" d="M29.16,37.89h5.92V12.73h-5.92v25.16ZM32.12,0c2.22,0,4,1.78,4,3.85h0c0,2.07-1.78,3.85-4,3.85s-3.85-1.78-3.85-3.85c-.15-2.07,1.63-3.85,3.85-3.85Zm9.32,37.89V.15h5.92V23.83l9.18-11.1h7.4l-10.51,12.58,10.51,12.58h-7.4l-9.18-11.1v11.1h-5.92Z"/><path class="d" d="M76.82,33.3c4.44,0,7.4-3.7,7.4-7.99s-2.96-7.99-7.4-7.99-7.4,3.7-7.4,7.99,2.96,7.99,7.4,7.99m0-21.17c7.99,0,13.32,6.07,13.32,13.17s-5.33,13.17-13.32,13.17-13.17-6.07-13.17-13.17,5.18-13.17,13.17-13.17m17.61,25.75V12.73h5.92v3.55c1.63-2.81,4.44-4.14,8.14-4.14s6.07,1.33,7.55,3.4c1.18,1.92,1.63,4,1.63,7.4v14.95h-5.92v-13.03c0-4.29-1.33-7.55-5.48-7.55s-6.07,3.26-6.07,7.55v13.03h-5.77Zm-42.78,4H.89v2.66H52.99l-1.33-2.66Zm3.7,0l1.33,2.66h61.57v-2.66H55.36Z"/></g></g></g></svg>