<?xml version="1.0" encoding="UTF-8"?><svg xmlns="http://www.w3.org/2000/svg" viewBox="0 0 277.2 80.88"><defs><style>.d,.e,.f,.g,.h,.i,.j{fill:#ff8700;}.d,.f,.g,.h,.i,.j{font-size:31.58px;}.d,.k{font-family:CoHeadline-Regular, Co Headline;}.l,.k{font-size:16.62px;}.l,.j{font-family:CoText-Regular, Co Text;}.m{font-family:Capitolium2-Bold, Capitolium2;font-size:6.65px;}.m,.n,.o{fill:#1d1d1b;}.p{letter-spacing:-.13em;}.f{font-family:CoHeadline-Light, Co Headline;}.n{font-family:Capitolium2-Regular, Capitolium2;}.n,.o{font-size:6.65px;}.q{letter-spacing:.01em;}.g{font-family:CoText-Bold, Co Text;}.h{font-family:CoHeadline-Bold, Co Headline;}.o{font-family:Capitolium2-Light, Capitolium2;}.i{font-family:CoText-Light, Co Text;}.r{letter-spacing:0em;}</style></defs><g id="a"/><g id="b"><g id="c"><text class="l" transform="translate(0 14.02)"><tspan class="e" x="0" y="0">Co</tspan><tspan class="r" x="22.1" y="0"> </tspan><tspan class="p" x="26.11" y="0">T</tspan><tspan class="r" x="34.33" y="0">e</tspan><tspan class="q" x="44.17" y="0">x</tspan><tspan x="53.46" y="0">t</tspan></text><text class="k" transform="translate(183.15 14.85)"><tspan class="e" x="0" y="0">Co</tspan><tspan x="21.44" y="0" xml:space="preserve"> Headline</tspan></text><text class="f" transform="translate(0 67.31)"><tspan x="0" y="0">A</tspan></text><text class="i" transform="translate(154.46 66.47)"><tspan x="0" y="0">A</tspan></text><text class="j" transform="translate(203.8 66.47)"><tspan x="0" y="0">A</tspan></text><text class="g" transform="translate(253.14 66.47)"><tspan x="0" y="0">A</tspan></text><text class="h" transform="translate(103.83 66.47)"><tspan x="0" y="0">A</tspan></text><text class="d" transform="translate(51.91 66.47)"><tspan x="0" y="0">A</tspan></text><text class="n" transform="translate(46.43 36.84)"><tspan x="0" y="0">regular</tspan></text><text class="m" transform="translate(99.55 36.78) rotate(.74)"><tspan x="0" y="0">bold</tspan></text><text class="o" transform="translate(.64 37.75) rotate(-.26)"><tspan x="0" y="0">light</tspan></text><text class="n" transform="translate(194.41 34.35)"><tspan x="0" y="0">regular</tspan></text><text class="m" transform="translate(247.54 35.12) rotate(.74)"><tspan x="0" y="0">bold</tspan></text><text class="o" transform="translate(148.63 36.09) rotate(-.26)"><tspan x="0" y="0">light</tspan></text></g></g></svg>