<?xml version="1.0" encoding="UTF-8"?><svg xmlns="http://www.w3.org/2000/svg" viewBox="0 0 310.26 146.49"><defs><style>.d{fill:#fff;}</style></defs><g id="a"/><g id="b"><g id="c"><g><path class="d" d="M91.78,3.18c-.51,.57-.54,1.41-.54,3.99v14.79h-.99l-12.03-15.42c-.45-.6-.72-1.11-.72-1.11v12.3c0,2.31,.09,2.79,.63,3.27,.24,.21,.72,.42,1.29,.48v.42c-1.17-.06-1.65-.12-2.7-.12s-1.44,0-2.73,.12v-.42c.39-.03,1.02-.15,1.47-.66,.51-.57,.54-1.41,.54-3.99V6.27c0-2.31-.09-2.79-.63-3.27-.24-.21-.72-.42-1.29-.48v-.42c1.17,.06,1.2,.09,2.25,.09,.45,0,.69,0,1.5-.06l10.95,14.04c.63,.81,.96,1.47,.96,1.47V6.27c0-2.31-.09-2.79-.63-3.27-.24-.21-.72-.42-1.29-.48v-.42c1.17,.06,1.65,.12,2.7,.12s1.44,0,2.73-.12v.42c-.36,0-1.02,.15-1.47,.66Z"/><path class="d" d="M102.25,22.23c-4.14,0-6.54-2.7-6.54-6.99,0-3.69,2.04-7.38,6.84-7.38,4.14,0,6.54,2.7,6.54,6.99,0,3.69-2.04,7.38-6.84,7.38Zm.09-13.38c-.3,0-1.23-.03-2.19,.72s-1.86,2.34-1.86,5.52,1.14,6.15,4.17,6.15c.3,0,1.23,.03,2.19-.72s1.86-2.34,1.86-5.52-1.14-6.15-4.17-6.15Z"/><path class="d" d="M121.09,22.02c-1.53,0-1.8-1.11-1.8-1.83-.42,.6-1.65,1.89-3.84,1.89-3.75,0-3.81-2.97-3.81-3.54,0-.78,.21-2.64,2.64-3.33,1.17-.33,3.21-.42,4.95-.42v-1.35c0-.9,0-1.95-.18-2.52-.42-1.26-1.44-1.71-2.73-1.71-2.1,0-2.97,1.62-3,1.68l-.39-.24c.3-.96,1.53-2.79,4.41-2.79,1.98,0,3.06,.69,3.69,1.65,.54,.87,.6,2.1,.6,3.54,0,2.07-.09,4.56-.09,5.55,0,.87,0,1.92,1.2,1.92,.27,0,.48-.06,.66-.21l.27,.3c-.54,.66-1.2,1.41-2.58,1.41Zm-1.86-6.48c-2.04,.09-3.15,.24-3.81,.51-1.14,.48-1.41,1.38-1.41,2.25,0,.72,.18,2.43,2.55,2.43,1.62,0,2.58-.75,2.67-.81v-4.38Z"/><path class="d" d="M137.89,21.78c-1.05,0-1.86,0-3.15,.12v-.39c.6-.09,1.05-.27,1.35-.57,.63-.63,.57-1.62,.63-2.85,.03-.54,.03-1.68,.03-2.52,0-1.08,0-2.22-.12-3.33-.18-1.68-1.05-3-3.45-3-1.47,0-2.43,.36-3.09,.72v7.77c0,2.37,.09,2.79,.63,3.3,.3,.27,.84,.45,1.29,.48v.39c-1.17-.06-2.04-.12-3.09-.12s-1.89,0-3.18,.12v-.39c.39-.03,1.02-.18,1.47-.69,.51-.57,.54-1.41,.54-3.99V4.77c0-1.89-.03-2.61-.33-3.06-.39-.6-1.26-.6-1.59-.63v-.45c.36,0,1.71-.06,2.91-.27,.57-.12,1.05-.24,1.38-.36l.09,.06c-.09,1.08-.12,3.3-.12,5.58v3.93c.27-.27,1.86-1.68,4.38-1.68s4.02,1.23,4.44,3.15c.12,.48,.18,1.68,.18,2.49v4.2c0,2.37,.09,2.79,.63,3.3,.3,.27,.84,.45,1.29,.48v.39c-1.17-.06-2.07-.12-3.12-.12Z"/><path class="d" d="M161.26,21.84h-7.2c-1.68,0-3.3-.03-4.98,.06v-.42c.42-.03,1.02-.15,1.47-.66,.51-.57,.54-1.41,.54-3.99V6.33c0-2.22-.03-2.67-.51-3.21-.3-.33-.72-.51-1.41-.57v-.42c1.65,.09,2.61,.09,4.29,.09h7.71s-.03,2.28,.09,3.66h-.48c-.03-.96-.33-1.62-.75-1.98-.6-.54-1.47-.57-2.67-.57h-3.81v7.74h3.48c1.26,0,1.89-.09,2.34-.57,.51-.51,.51-1.26,.54-1.74h.45c0,.66-.06,.96-.06,2.85s.06,2.1,.09,2.79h-.48c0-.51-.06-1.2-.57-1.71-.45-.48-1.23-.54-2.37-.54h-3.42v7.05c0,1.35,.33,1.53,1.95,1.53h1.92c1.32,0,2.16-.06,2.73-.63,.39-.42,.69-1.08,.72-2.13h.48c-.12,1.38-.09,3.87-.09,3.87Z"/><path class="d" d="M167.68,21.78c-1.05,0-2.04,0-3.33,.12v-.39c.54-.06,1.14-.15,1.59-.66,.51-.57,.54-1.44,.54-4.02V4.77c0-1.89-.03-2.61-.33-3.06-.42-.6-1.29-.6-1.59-.63v-.45c.36,0,1.71-.06,2.91-.27,.57-.12,1.05-.24,1.38-.36l.09,.06c-.09,1.08-.12,3.3-.12,5.58v12.09c0,2.37,.09,2.79,.63,3.3,.3,.27,.99,.45,1.44,.48v.39c-1.17-.06-2.16-.12-3.21-.12Z"/><path class="d" d="M176.32,21.78c-1.05,0-2.04,0-3.33,.12v-.39c.54-.06,1.14-.15,1.59-.66,.51-.57,.54-1.44,.54-4.02V4.77c0-1.89-.03-2.61-.33-3.06-.42-.6-1.29-.6-1.59-.63v-.45c.36,0,1.71-.06,2.91-.27,.57-.12,1.05-.24,1.38-.36l.09,.06c-.09,1.08-.12,3.3-.12,5.58v12.09c0,2.37,.09,2.79,.63,3.3,.3,.27,.99,.45,1.44,.48v.39c-1.17-.06-2.16-.12-3.21-.12Z"/><path class="d" d="M184.21,14.07v.12c0,.72,.03,1.47,.15,2.13,.69,3.96,3.6,4.32,4.98,4.32,1.2,0,2.28-.21,3.3-.75l.24,.33c-.96,1.17-2.82,1.89-4.77,1.89-4.44,0-6.27-2.94-6.27-6.69,0-4.32,2.25-7.53,6.27-7.53,2.73,0,3.81,1.41,4.23,2.07,.75,1.2,.84,2.43,.84,3.72v.39h-8.97Zm6.33-1.29c0-1.17-.06-3.93-3.09-3.93s-3.21,3.18-3.21,4.26h6.3v-.33Z"/><path class="d" d="M207.97,21.78c-1.05,0-1.86,0-3.15,.12v-.39c.6-.09,1.05-.27,1.35-.57,.63-.63,.57-1.62,.63-2.85,.03-.54,.03-1.68,.03-2.52,0-1.08,0-2.22-.12-3.33-.18-1.68-1.05-3-3.45-3-1.47,0-2.43,.36-3.09,.72v7.77c0,2.37,.09,2.79,.63,3.3,.3,.27,.84,.45,1.29,.48v.39c-1.17-.06-2.04-.12-3.09-.12s-1.89,0-3.18,.12v-.39c.39-.03,1.02-.18,1.47-.69,.51-.57,.54-1.41,.54-3.99v-4.14c0-1.89-.03-2.61-.33-3.06-.42-.6-1.29-.6-1.62-.63v-.48c.39,.03,1.53-.03,2.76-.27,.57-.09,1.02-.21,1.35-.36l.12,.09v1.62c.27-.27,1.92-1.71,4.44-1.71s4.02,1.23,4.44,3.15c.12,.48,.18,1.68,.18,2.49v4.2c0,2.37,.09,2.79,.63,3.3,.3,.27,.84,.45,1.29,.48v.39c-1.17-.06-2.07-.12-3.12-.12Z"/><path class="d" d="M222.67,22.02c-1.53,0-1.8-1.11-1.8-1.83-.42,.6-1.65,1.89-3.84,1.89-3.75,0-3.81-2.97-3.81-3.54,0-.78,.21-2.64,2.64-3.33,1.17-.33,3.21-.42,4.95-.42v-1.35c0-.9,0-1.95-.18-2.52-.42-1.26-1.44-1.71-2.73-1.71-2.1,0-2.97,1.62-3,1.68l-.39-.24c.3-.96,1.53-2.79,4.41-2.79,1.98,0,3.06,.69,3.69,1.65,.54,.87,.6,2.1,.6,3.54,0,2.07-.09,4.56-.09,5.55,0,.87,0,1.92,1.2,1.92,.27,0,.48-.06,.66-.21l.27,.3c-.54,.66-1.2,1.41-2.58,1.41Zm-1.86-6.48c-2.04,.09-3.15,.24-3.81,.51-1.14,.48-1.41,1.38-1.41,2.25,0,.72,.18,2.43,2.55,2.43,1.62,0,2.58-.75,2.67-.81v-4.38Z"/></g><g><path class="d" d="M161.71,69.59c0-.52-.22-.9-.54-1.16-.62-.54-1.66-.64-2.28-.64-1.76,0-4.46,.38-4.46,5.82,0,3.34,1.14,5.66,4.52,5.66,.72,0,1.68-.1,2.22-.74,.26-.28,.42-.68,.42-1.22h.42c-.04,.58-.08,1.2-.08,2.14v.34c-.9,.3-2.34,.44-3.38,.44-2.52,0-4.62-.72-5.86-2.26-.8-1-1.26-2.38-1.26-4.12,0-3.46,1.96-5.64,4.52-6.56,1.02-.36,2.28-.44,3.04-.44,1.54,0,2.96,.22,3.14,.22-.04,.38-.04,.84-.04,1.24,0,.52,.02,1.02,.04,1.28h-.42Z"/><path class="d" d="M168.2,80.31c-3.28,0-4.88-1.92-4.88-4.76,0-1.7,.76-4.94,5.12-4.94,3.28,0,4.88,1.92,4.88,4.76,0,1.7-.76,4.94-5.12,4.94Zm.08-8.92c-.26,0-.74,.04-1.16,.48-.48,.52-.86,1.48-.86,3.6,0,3.88,1.38,4.06,2.1,4.06,.26,0,.74-.04,1.16-.48,.48-.52,.86-1.48,.86-3.6,0-3.88-1.38-4.06-2.1-4.06Z"/></g><g><path class="d" d="M159.67,118.56c-.62,.18-1.72,.32-3.26,.32-1.02,0-1.76-.06-2.66-.06-.7,0-1.54,.02-2.32,.06v-.36c.26,0,.68-.1,.98-.44,.34-.38,.36-.94,.36-2.66v-6.88c0-1.26-.06-1.7-.26-2-.16-.22-.48-.46-1.02-.5v-.36s.76,.06,2.22,.06c.64,0,1.84-.04,3.28-.04,1.8,0,7.32,.16,7.32,6.22,0,4.7-2.78,6.12-4.64,6.64Zm-2.72-11.94c-1.06,0-1.42,.06-1.42,.06v10.22c0,.58,.06,.88,.48,1,.2,.06,.52,.06,.96,.06,3.04,0,4.34-1.6,4.34-5.76,0-5.08-2.64-5.58-4.36-5.58Z"/><path class="d" d="M172.55,118.96c-1.36,0-1.64-.84-1.74-1.26-.28,.34-1.04,1.3-2.7,1.3-2.5,0-2.66-1.88-2.66-2.5,0-1.08,.56-1.78,1.3-2.16,1.1-.56,2.8-.5,3.98-.5v-.42c0-.6,0-1.32-.12-1.7-.32-.94-1.12-1.12-1.78-1.12-1.1,0-1.6,.5-2,1.08l-.42-.32c.12-.36,.88-1.98,3.48-1.98,2.74,0,3.2,1.4,3.38,1.96,.2,.58,.16,1.94,.16,2.06,0,.56-.06,1.2-.06,2.72,0,.6,0,1.44,.86,1.44,.34,0,.44-.1,.58-.18l.26,.26c-.62,.86-1.34,1.32-2.52,1.32Zm-1.82-4.46c-.26,0-1.22,.02-1.74,.28-.32,.16-.82,.44-.82,1.42,0,.88,.46,1.48,1.4,1.48,.46,0,.78-.08,1.16-.34v-2.84Z"/><path class="d" d="M178.34,118.8c-.7,0-1.88,.04-2.66,.08v-.36c.26,0,.68-.1,.98-.44,.34-.38,.36-.94,.36-2.66v-7.84c0-1.26-.02-1.74-.22-2.04-.28-.4-.86-.4-1.06-.42v-.38c.2,0,1.4-.04,2.7-.22,.44-.06,.88-.16,1.28-.26l.1,.1c-.06,.72-.08,2.2-.08,3.72v7.94c0,1.26,.06,1.7,.26,2,.16,.22,.48,.46,1.02,.5v.36c-.78-.04-1.98-.08-2.68-.08Z"/><path class="d" d="M186.22,118.98c-1.88,0-2.62-.7-2.88-1.8-.08-.38-.12-.82-.12-2.08,0-1.82,0-2.72,.04-4.54h-1.26v-.38c.28-.12,1.18-.54,1.74-1.02,.72-.6,1.56-1.7,1.88-2.12h.34v2.52h3.18v1h-3.18v4.98c0,1.24,.12,2.4,1.94,2.4,.58,0,.96-.18,1.12-.24l.16,.26c-.42,.44-1.36,1.02-2.96,1.02Z"/><path class="d" d="M194.68,119.04c-3.28,0-4.88-1.92-4.88-4.76,0-1.7,.76-4.94,5.12-4.94,3.28,0,4.88,1.92,4.88,4.76,0,1.7-.76,4.94-5.12,4.94Zm.08-8.92c-.26,0-.74,.04-1.16,.48-.48,.52-.86,1.48-.86,3.6,0,3.88,1.38,4.06,2.1,4.06,.26,0,.74-.04,1.16-.48,.48-.52,.86-1.48,.86-3.6,0-3.88-1.38-4.06-2.1-4.06Z"/><path class="d" d="M209.73,118.8c-.7,0-1.8,.04-2.58,.08v-.36c.4-.06,.66-.18,.86-.38,.38-.38,.4-.9,.4-3.5,0-1.24-.02-1.72-.06-2.14-.06-.92-.26-1.98-1.84-1.98-.52,0-1.12,.1-1.5,.4v5.1c0,1.34,.04,1.64,.2,1.96,.18,.34,.68,.54,1,.54v.36c-.78-.04-1.9-.08-2.6-.08s-1.88,.04-2.66,.08v-.36c.26,0,.68-.1,.98-.44,.34-.38,.36-.94,.36-2.66v-2.74c0-1.28-.02-1.76-.22-2.06-.26-.4-.84-.4-1.06-.42v-.38c.36,.02,1.44-.02,2.6-.18,.52-.06,.92-.14,1.24-.24l.12,.06v1.02c.1-.1,1.04-1.12,3.02-1.12,1.66,0,2.66,.76,3,2.04,.1,.4,.14,1.16,.14,1.78v2.84c0,1.26,.06,1.7,.26,2,.16,.22,.48,.46,1.02,.5v.36c-.78-.04-1.98-.08-2.68-.08Z"/><path class="d" d="M230.44,118.8c-.7,0-1.78,0-2.64,.08v-.36c.24-.02,.7-.1,1-.44,.3-.34,.28-1.04,.28-1.46,0-.14-.32-9-.32-9,0,0-.1,.42-.38,1.16l-3.84,10.14h-.62l-3.66-10.14c-.28-.76-.38-1.22-.38-1.22,0,0-.34,8.62-.34,9s-.04,1.02,.16,1.38c.02,.04,.28,.52,1.06,.58v.36c-.78-.06-1.32-.08-2.02-.08s-.96,0-1.82,.08v-.36c.24-.02,.66-.1,.96-.44,.3-.34,.34-.88,.42-2.5l.32-6.68c.02-.28,.06-1.12,.06-1.34,0-.54-.04-.76-.2-1-.04-.06-.3-.46-1.04-.52v-.36c.8,.04,1.88,.08,2.58,.08,.34,0,1.58-.04,1.88-.08l2.86,7.92c.18,.52,.3,1,.3,1,0,0,.12-.44,.32-.98l3.06-7.94c.3,.04,1.62,.08,1.96,.08,.7,0,1.44,0,2.3-.08v.36c-.26,.02-.68,.08-.98,.44-.28,.32-.28,.82-.28,1.24,0,.3,.02,.84,.04,1.26l.28,6.88c.04,1.2,.08,1.82,.32,2.16,.04,.06,.3,.44,1.02,.5v.36c-.78-.04-1.96-.08-2.66-.08Z"/><path class="d" d="M241.24,118.96c-1.36,0-1.64-.84-1.74-1.26-.28,.34-1.04,1.3-2.7,1.3-2.5,0-2.66-1.88-2.66-2.5,0-1.08,.56-1.78,1.3-2.16,1.1-.56,2.8-.5,3.98-.5v-.42c0-.6,0-1.32-.12-1.7-.32-.94-1.12-1.12-1.78-1.12-1.1,0-1.6,.5-2,1.08l-.42-.32c.12-.36,.88-1.98,3.48-1.98,2.74,0,3.2,1.4,3.38,1.96,.2,.58,.16,1.94,.16,2.06,0,.56-.06,1.2-.06,2.72,0,.6,0,1.44,.86,1.44,.34,0,.44-.1,.58-.18l.26,.26c-.62,.86-1.34,1.32-2.52,1.32Zm-1.82-4.46c-.26,0-1.22,.02-1.74,.28-.32,.16-.82,.44-.82,1.42,0,.88,.46,1.48,1.4,1.48,.46,0,.78-.08,1.16-.34v-2.84Z"/><path class="d" d="M251.5,118.96c-1.36,0-1.64-.84-1.74-1.26-.28,.34-1.04,1.3-2.7,1.3-2.5,0-2.66-1.88-2.66-2.5,0-1.08,.56-1.78,1.3-2.16,1.1-.56,2.8-.5,3.98-.5v-.42c0-.6,0-1.32-.12-1.7-.32-.94-1.12-1.12-1.78-1.12-1.1,0-1.6,.5-2,1.08l-.42-.32c.12-.36,.88-1.98,3.48-1.98,2.74,0,3.2,1.4,3.38,1.96,.2,.58,.16,1.94,.16,2.06,0,.56-.06,1.2-.06,2.72,0,.6,0,1.44,.86,1.44,.34,0,.44-.1,.58-.18l.26,.26c-.62,.86-1.34,1.32-2.52,1.32Zm-1.82-4.46c-.26,0-1.22,.02-1.74,.28-.32,.16-.82,.44-.82,1.42,0,.88,.46,1.48,1.4,1.48,.46,0,.78-.08,1.16-.34v-2.84Z"/><path class="d" d="M262.36,110.56c.2,.2,.92,.78,.92,2.1,0,1.9-1.48,3.28-4.28,3.28-.34,0-.66-.02-.98-.06-.32,.3-.36,.68-.36,.82,0,.72,.54,.78,.96,.78,.94,0,1.3-.04,2.64-.04,1.08,0,3.18,.14,3.18,2.68,0,1.94-1.88,4.02-5.78,4.02-3,0-4.44-.94-4.44-2.32,0-1.68,1.84-2.18,2.42-2.3-.7-.28-1-.9-1-1.48,0-1.18,.94-1.88,1.8-2.28-1.46-.36-2.52-1.24-2.52-3.06s1.48-3.32,4.22-3.32c.78,0,1.52,.16,2.08,.36l3.56-.44v1.56l-2.42-.3Zm-1.88,9.16h-3.24c-.28,.16-1.04,.64-1.04,1.6,0,1.76,1.92,1.92,2.66,1.92,1.98,0,3.52-.68,3.52-2.28,0-1.22-1.08-1.24-1.9-1.24Zm-1.42-9.68c-1.44,0-1.62,1.54-1.62,2.7,0,.64,.14,2.54,1.68,2.54,1.44,0,1.62-1.54,1.62-2.7,0-.64-.14-2.54-1.68-2.54Z"/></g><g><path class="d" d="M65.3,67.47c-.02-.64-.22-1.06-.5-1.3-.4-.36-.98-.36-1.78-.36h-2.44v5.1h2.22c.84,0,1.26-.06,1.56-.38,.34-.34,.34-.82,.36-1.14h.32c0,.44-.04,.64-.04,1.9s.04,1.4,.06,1.86h-.34c0-.34-.04-.78-.38-1.12-.3-.32-.82-.36-1.58-.36h-2.18v3.7c0,1.26,.06,1.66,.26,1.94,.32,.48,1.26,.54,1.42,.54v.3c-.78-.04-1.6-.08-2.3-.08s-1.66,0-2.52,.08v-.28c.26-.02,.68-.12,.98-.46,.34-.38,.36-.94,.36-2.66v-6.96c0-1.48-.02-1.78-.34-2.14-.2-.22-.48-.34-.94-.38v-.3c1.1,.06,1.82,.06,2.94,.06h5.14s-.02,1.52,.06,2.44h-.34Z"/><path class="d" d="M71.4,78.33c-2.92,0-4.44-1.88-4.44-4.64,0-2.18,1.14-4.9,4.64-4.9,2.92,0,4.44,1.88,4.44,4.64,0,2.18-1.14,4.9-4.64,4.9Zm.12-8.84c-.2,0-.92,0-1.48,.48-.62,.52-1.22,1.52-1.22,3.62,0,1.1,.32,4.04,2.66,4.04,.2,0,.92,0,1.48-.48,.62-.52,1.22-1.52,1.22-3.62,0-1.1-.32-4.04-2.66-4.04Z"/><path class="d" d="M85.94,78.07c-.7,0-1.32,0-2.18,.08v-.28c.4-.06,.7-.18,.9-.38,.42-.42,.38-1.08,.42-1.9,.02-.36,.02-1.1,.02-1.66,0-.72,0-1.46-.08-2.2-.12-1.04-.62-1.98-2.22-1.98-.96,0-1.54,.24-1.98,.48v5.12c0,1.58,.06,1.86,.42,2.2,.2,.18,.56,.3,.86,.32v.28c-.78-.04-1.44-.08-2.14-.08s-1.34,0-2.2,.08v-.28c.26-.02,.68-.12,.98-.46,.34-.38,.36-.94,.36-2.66v-2.72c0-1.26-.02-1.74-.22-2.04-.28-.4-.86-.4-1.08-.42v-.34c.26,.02,1.1-.02,1.92-.18,.38-.06,.76-.14,.98-.24l.08,.06v1.08c.18-.18,1.28-1.14,2.96-1.14s2.68,.82,2.96,2.1c.08,.32,.12,1.12,.12,1.66v2.78c0,1.58,.06,1.86,.42,2.2,.2,.18,.56,.3,.86,.32v.28c-.78-.04-1.46-.08-2.16-.08Z"/><path class="d" d="M93.1,78.29c-1.46,0-2.14-.52-2.46-1.56-.14-.44-.14-1.34-.14-1.88,0-1.82,.02-3.2,.04-5.02h-1.26v-.2c.58-.24,.84-.4,1.12-.64,.64-.54,1.6-2.08,1.6-2.08h.26v2.14h3.24v.78h-3.24v5.2c0,1.44,.22,2.4,1.86,2.4,.72,0,1.26-.28,1.26-.28l.12,.3s-.74,.84-2.4,.84Z"/></g><g><path class="d" d="M65.3,109.2c-.02-.64-.22-1.06-.5-1.3-.4-.36-.98-.36-1.78-.36h-2.44v5.1h2.22c.84,0,1.26-.06,1.56-.38,.34-.34,.34-.82,.36-1.14h.32c0,.44-.04,.64-.04,1.9s.04,1.4,.06,1.86h-.34c0-.34-.04-.78-.38-1.12-.3-.32-.82-.36-1.58-.36h-2.18v3.7c0,1.26,.06,1.66,.26,1.94,.32,.48,1.26,.54,1.42,.54v.3c-.78-.04-1.6-.08-2.3-.08s-1.66,0-2.52,.08v-.28c.26-.02,.68-.12,.98-.46,.34-.38,.36-.94,.36-2.66v-6.96c0-1.48-.02-1.78-.34-2.14-.2-.22-.48-.34-.94-.38v-.3c1.1,.06,1.82,.06,2.94,.06h5.14s-.02,1.52,.06,2.44h-.34Z"/><path class="d" d="M71.4,120.06c-2.92,0-4.44-1.88-4.44-4.64,0-2.18,1.14-4.9,4.64-4.9,2.92,0,4.44,1.88,4.44,4.64,0,2.18-1.14,4.9-4.64,4.9Zm.12-8.84c-.2,0-.92,0-1.48,.48-.62,.52-1.22,1.52-1.22,3.62,0,1.1,.32,4.04,2.66,4.04,.2,0,.92,0,1.48-.48,.62-.52,1.22-1.52,1.22-3.62,0-1.1-.32-4.04-2.66-4.04Z"/><path class="d" d="M85.94,119.8c-.7,0-1.32,0-2.18,.08v-.28c.4-.06,.7-.18,.9-.38,.42-.42,.38-1.08,.42-1.9,.02-.36,.02-1.1,.02-1.66,0-.72,0-1.46-.08-2.2-.12-1.04-.62-1.98-2.22-1.98-.96,0-1.54,.24-1.98,.48v5.12c0,1.58,.06,1.86,.42,2.2,.2,.18,.56,.3,.86,.32v.28c-.78-.04-1.44-.08-2.14-.08s-1.34,0-2.2,.08v-.28c.26-.02,.68-.12,.98-.46,.34-.38,.36-.94,.36-2.66v-2.72c0-1.26-.02-1.74-.22-2.04-.28-.4-.86-.4-1.08-.42v-.34c.26,.02,1.1-.02,1.92-.18,.38-.06,.76-.14,.98-.24l.08,.06v1.08c.18-.18,1.28-1.14,2.96-1.14s2.68,.82,2.96,2.1c.08,.32,.12,1.12,.12,1.66v2.78c0,1.58,.06,1.86,.42,2.2,.2,.18,.56,.3,.86,.32v.28c-.78-.04-1.46-.08-2.16-.08Z"/><path class="d" d="M97.64,119.78c-.38,.06-.78,.14-1,.24l-.08-.04v-1.06c-.1,.1-1.18,1.12-2.86,1.12-2.58,0-4.1-1.84-4.1-4.42,0-.98,.2-1.82,.5-2.48,.72-1.56,2.22-2.6,4.36-2.6,1,0,1.8,.16,2.06,.24v-2.28c0-1.26-.02-1.76-.22-2.06-.28-.4-.86-.4-1.06-.42v-.32c.24,0,1.24-.02,2.06-.18,.36-.06,.74-.16,.96-.24l.06,.04c-.06,.72-.08,2.2-.08,3.72v7.76c0,1.26,.02,1.76,.22,2.04,.28,.4,.86,.4,1.06,.42v.32c-.24,0-1.08,.06-1.88,.2Zm-1.12-7.74c-.08-.1-.7-.76-2.1-.76-2.54,0-2.96,2.28-2.96,4.08,0,.74,.16,3.72,3.26,3.72,.12,0,1.04,.04,1.8-.48v-6.56Z"/><path class="d" d="M107.1,112.6h-.16c-.14-.22-.6-.86-1.7-.86-.52,0-.92,.16-1.24,.4v4.9c0,1.26,.04,1.7,.24,2,.32,.48,1.18,.52,1.48,.52v.32c-.78-.04-1.7-.08-2.4-.08s-1.52,0-2.38,.08v-.28c.26-.02,.68-.12,.98-.46,.34-.38,.36-.94,.36-2.66v-2.72c0-1.26-.02-1.74-.22-2.04-.28-.4-.86-.4-1.08-.42v-.34c.26,.02,1.1-.02,1.92-.18,.36-.06,.76-.14,.98-.24l.08,.06v1.24c.22-.28,1-1.2,2.4-1.2,.84,0,1.26,.3,1.46,.48v.16l-.72,1.32Z"/><path class="d" d="M111.08,119.8c-.6,0-1.44,0-2.3,.08v-.28c.36-.04,.76-.1,1.06-.44,.34-.38,.36-.96,.36-2.68v-2.72c0-1.26-.02-1.74-.22-2.04-.28-.4-.86-.4-1.06-.42v-.34c.24,.02,1.22-.02,2.04-.18,.36-.06,.76-.14,.98-.24l.06,.06c-.06,.7-.08,2.2-.08,3.7v2.78c0,1.26,.04,1.7,.24,2,.12,.18,.46,.46,1.14,.52v.28c-.78-.04-1.52-.08-2.22-.08Zm-.12-11.3c-.62,0-1.06-.38-1.06-1s.44-1.04,1.1-1.04c.62,0,1.06,.38,1.06,1s-.44,1.04-1.1,1.04Z"/><path class="d" d="M116.58,114.68v.04c0,.48,.02,.94,.1,1.38,.46,2.64,2.32,2.88,3.32,2.88,.8,0,1.52-.14,2.2-.5l.16,.26c-.64,.78-1.96,1.26-3.26,1.26-3.04,0-4.26-1.9-4.26-4.48,0-1.58,.68-4.98,4.3-4.98,1.46,0,2.4,.66,2.82,1.34,.5,.8,.6,1.62,.6,2.48v.32h-5.98Zm4.14-.84c0-.78-.04-2.62-2.06-2.62s-2.06,2.06-2.06,2.78h4.12v-.16Z"/></g><path class="d" d="M7.23,97.26c0,1.42,.39,2.84,1.17,4.25l-4.68,2.66c-.78,.36-1.38,.28-1.81-.21-.57-.78-1.03-1.79-1.38-3.03-.36-1.24-.53-2.46-.53-3.67,0-1.06,.18-2.27,.53-3.62,.35-1.35,.81-2.37,1.38-3.08,.43-.5,1.03-.57,1.81-.21l4.68,2.66c-.43,.71-.73,1.44-.9,2.18-.18,.74-.27,1.44-.27,2.07Zm7.97,8.61c1.56,0,2.98-.39,4.25-1.17l2.66,4.68c.35,.78,.28,1.38-.21,1.81-.78,.64-1.83,1.12-3.14,1.44-1.31,.32-2.5,.48-3.56,.48-1.21,0-2.46-.18-3.77-.53-1.31-.35-2.29-.81-2.92-1.38-.57-.5-.64-1.1-.21-1.81l2.66-4.68c1.42,.78,2.83,1.17,4.25,1.17Zm0-17.01c-1.42,0-2.84,.39-4.25,1.17l-2.66-4.68c-.36-.78-.28-1.38,.21-1.81,.78-.57,1.79-1.03,3.03-1.38,1.24-.35,2.46-.53,3.67-.53,1.06,0,2.27,.18,3.62,.53,1.35,.36,2.37,.82,3.08,1.38,.5,.43,.57,1.03,.21,1.81l-2.66,4.68c-.71-.42-1.44-.73-2.18-.9-.74-.18-1.44-.27-2.07-.27Zm.21-10.63c-.99,0-1.91,.07-2.76,.21-.85,.14-1.77,.43-2.76,.85,1.7-8.93,4.85-15.97,9.46-21.11,4.61-5.14,10.17-8.42,16.69-9.83v10.74c-7.73,2.98-12.69,9.71-14.89,20.2-.99-.42-1.95-.71-2.87-.85-.92-.14-1.88-.21-2.87-.21Zm0,38.38c.99,0,1.95-.07,2.87-.21,.92-.14,1.88-.42,2.87-.85,2.13,10.42,7.09,17.15,14.89,20.2v10.74c-6.52-1.42-12.09-4.7-16.69-9.84-4.61-5.14-7.76-12.17-9.46-21.11,.99,.43,1.91,.71,2.76,.85,.85,.14,1.77,.21,2.76,.21Zm-5.42-19.25c0-1.49,.5-2.76,1.49-3.83,.99-1.06,2.2-1.59,3.62-1.59s2.62,.53,3.61,1.59c.99,1.06,1.49,2.34,1.49,3.83s-.5,2.76-1.49,3.83c-.99,1.06-2.2,1.6-3.61,1.6s-2.62-.53-3.62-1.6c-.99-1.06-1.49-2.34-1.49-3.83Zm13.08-.11c0-1.56-.39-2.98-1.17-4.25l4.68-2.66c.78-.35,1.38-.28,1.81,.21,.64,.78,1.12,1.83,1.44,3.14,.32,1.31,.48,2.5,.48,3.56,0,1.21-.18,2.46-.53,3.77-.36,1.31-.82,2.29-1.38,2.92-.5,.57-1.1,.64-1.81,.21l-4.68-2.66c.78-1.42,1.17-2.83,1.17-4.25Z"/><path class="d" d="M291.97,78.44c-.92,.14-1.88,.43-2.87,.85-2.2-10.49-7.16-17.22-14.89-20.2v-10.74c6.52,1.42,12.09,4.7,16.69,9.83,4.61,5.14,7.76,12.17,9.46,21.11-.99-.42-1.91-.71-2.76-.85-.85-.14-1.77-.21-2.76-.21s-1.95,.07-2.87,.21Zm5.64,37.96c.85-.14,1.77-.42,2.76-.85-1.7,8.93-4.85,15.97-9.46,21.11-4.61,5.14-10.17,8.42-16.69,9.84v-10.74c7.8-3.05,12.76-9.78,14.89-20.2,.99,.43,1.95,.71,2.87,.85,.92,.14,1.88,.21,2.87,.21s1.91-.07,2.76-.21Zm-9.25-14.89l-4.68,2.66c-.71,.42-1.31,.36-1.81-.21-.57-.64-1.03-1.61-1.38-2.92-.35-1.31-.53-2.57-.53-3.77,0-1.06,.16-2.25,.48-3.56,.32-1.31,.8-2.36,1.44-3.14,.43-.5,1.03-.57,1.81-.21l4.68,2.66c-.78,1.28-1.17,2.69-1.17,4.25,0,1.42,.39,2.84,1.17,4.25Zm4.62-12.39c-.74,.18-1.47,.48-2.18,.9l-2.66-4.68c-.35-.78-.28-1.38,.21-1.81,.71-.57,1.74-1.03,3.08-1.38,1.35-.35,2.55-.53,3.62-.53,1.21,0,2.43,.18,3.67,.53,1.24,.36,2.25,.82,3.03,1.38,.5,.43,.57,1.03,.21,1.81l-2.66,4.68c-1.42-.78-2.83-1.17-4.25-1.17-.64,0-1.33,.09-2.07,.27Zm6.33,15.58l2.66,4.68c.43,.71,.36,1.31-.21,1.81-.64,.57-1.61,1.03-2.92,1.38-1.31,.36-2.57,.53-3.77,.53-1.06,0-2.25-.16-3.56-.48-1.31-.32-2.36-.8-3.14-1.44-.5-.43-.57-1.03-.21-1.81l2.66-4.68c1.28,.78,2.69,1.17,4.25,1.17,1.42,0,2.84-.39,4.25-1.17Zm-.53-3.51c-.99,1.06-2.2,1.6-3.62,1.6s-2.62-.53-3.61-1.6c-.99-1.06-1.49-2.34-1.49-3.83s.5-2.76,1.49-3.83c.99-1.06,2.2-1.59,3.61-1.59s2.62,.53,3.62,1.59c.99,1.06,1.49,2.34,1.49,3.83s-.5,2.76-1.49,3.83Zm3.99-6.01c-.18-.74-.48-1.47-.9-2.18l4.68-2.66c.78-.35,1.38-.28,1.81,.21,.57,.71,1.03,1.74,1.38,3.08,.36,1.35,.53,2.55,.53,3.62,0,1.21-.18,2.43-.53,3.67-.35,1.24-.81,2.25-1.38,3.03-.43,.5-1.03,.57-1.81,.21l-4.68-2.66c.78-1.42,1.17-2.83,1.17-4.25,0-.64-.09-1.33-.27-2.07Z"/></g></g></svg>